# xmcd CD database file
#
# Track frame offsets:
#	187
#	17325
#	41400
#
# Disc length: 780 seconds
#
# Revision: 0
# Processed by: cddbd v1.5PL3 Copyright (c) Steve Scherf et al.
# Submitted via: CDex 1.50Beta6
#
DISCID=14030a03
DTITLE=ends - トキメキ
DYEAR=1998
DGENRE=JPop
TTITLE0=トキメキ
TTITLE1=楽園
TTITLE2=トキメキ (instrumental)
EXTD=YEAR: 1998
EXTT0=
EXTT1=
EXTT2=
PLAYORDER=
